<?xml version="1.0" standalone="no"?>
<!DOCTYPE svg PUBLIC "-//W3C//DTD SVG 20010904//EN"
 "http://www.w3.org/TR/2001/REC-SVG-20010904/DTD/svg10.dtd">
<svg version="1.0" xmlns="http://www.w3.org/2000/svg"
 width="300.000000pt" height="300.000000pt" viewBox="0 0 300.000000 300.000000"
 preserveAspectRatio="xMidYMid meet">
<metadata>
Created by potrace 1.11, written by Peter Selinger 2001-2013
</metadata>
<g transform="translate(0.000000,300.000000) scale(0.100000,-0.100000)"
fill="#000000" stroke="none">
<path d="M0 1500 l0 -1500 1500 0 1500 0 0 1500 0 1500 -1500 0 -1500 0 0
-1500z m1450 889 c36 -5 110 -17 165 -26 207 -33 285 -29 397 19 89 39 102 4
30 -81 -127 -147 -141 -200 -141 -533 0 -133 -3 -269 -7 -303 -7 -72 -41 -194
-60 -216 -8 -8 -14 -20 -14 -25 0 -19 -107 -140 -161 -180 -63 -49 -153 -96
-226 -118 -61 -19 -165 -21 -196 -4 -12 6 -61 11 -110 11 -86 0 -88 0 -122
-33 -29 -28 -35 -31 -41 -17 -8 23 22 96 54 130 60 64 143 81 252 52 115 -31
193 -7 230 70 22 46 25 81 9 140 -41 155 -137 244 -273 254 -57 5 -71 9 -74
23 -2 12 6 22 25 29 28 11 161 7 221 -6 31 -7 32 -6 32 23 0 45 -57 122 -110
149 -45 24 -97 26 -158 7 -21 -6 -23 -4 -20 17 2 18 15 27 53 41 52 19 164 24
180 9 6 -4 24 -13 42 -19 36 -12 43 -3 43 52 0 40 24 113 56 170 22 40 106
125 184 189 l35 28 -50 -6 c-77 -11 -189 -8 -248 5 -28 6 -82 19 -119 27 -99
23 -178 15 -225 -24 -64 -51 -55 -83 23 -83 52 0 79 -27 79 -80 0 -82 -88
-120 -148 -64 -104 96 -29 300 133 364 52 21 163 25 260 9z"/>
<path d="M1820 2229 c-116 -94 -174 -187 -201 -324 -6 -28 -10 -187 -10 -357
1 -342 -4 -386 -55 -465 -21 -34 -29 -53 -21 -53 27 0 107 63 136 107 59 89
64 125 65 478 2 295 3 325 23 390 31 103 40 123 78 176 19 25 35 52 35 58 0
17 -22 13 -50 -10z"/>
</g>
</svg>
